<svg width="378" height="151" viewBox="0 0 378 151" fill="none" xmlns="http://www.w3.org/2000/svg">
<g filter="url(#filter0_d_415_2566)">
<g filter="url(#filter1_d_415_2566)">
<path d="M116.969 22.7969C110.432 21.1823 104.195 20.375 98.2578 20.375C88.7005 20.375 82.6328 22.9531 80.0547 28.1094C79.2734 29.6719 78.8828 31.4557 78.8828 33.4609C78.8828 37.8359 80.0417 41.1693 82.3594 43.4609C84.6771 45.7526 87.8281 46.8984 91.8125 46.8984C94.3906 46.8984 96.5391 46.3776 98.2578 45.3359C100.003 44.2943 101.279 42.9922 102.086 41.4297L92.7891 41.4297L93.2969 30.1406C93.5052 30.1667 98.2318 30.2318 107.477 30.3359C116.747 30.4141 121.682 30.5182 122.281 30.6484V61L114.938 61.3906L113.766 53.4219C111.5 56.2083 107.711 58.4609 102.398 60.1797C97.0859 61.8984 92.151 62.7578 87.5938 62.7578C83.0365 62.7578 78.8568 62.4063 75.0547 61.7031C71.2526 61 67.7109 59.8932 64.4297 58.3828C61.1484 56.8464 58.3099 54.9844 55.9141 52.7969C53.5443 50.5833 51.6823 47.875 50.3281 44.6719C48.974 41.4688 48.2969 37.7708 48.2969 33.5781C48.2969 29.3854 49.1562 25.5052 50.875 21.9375C52.5938 18.3698 54.9115 15.4271 57.8281 13.1094C66.1354 6.46875 78.5703 3.14844 95.1328 3.14844C97.9193 3.14844 101.604 3.39583 106.188 3.89063C110.797 4.35938 114.391 4.91927 116.969 5.57031V22.7969ZM171.32 53.4609C169.68 56.1172 167.284 58.2786 164.133 59.9453C160.982 61.612 157.505 62.4453 153.703 62.4453C149.901 62.4453 146.581 62.0417 143.742 61.2344C140.904 60.4531 138.273 59.2813 135.852 57.7188C133.456 56.1563 131.529 54.0469 130.07 51.3906C128.612 48.7344 127.883 45.6484 127.883 42.1328C127.883 38.5911 128.534 35.3359 129.836 32.3672C131.164 29.3724 132.948 26.9375 135.188 25.0625C139.771 21.1563 145.357 19.2031 151.945 19.2031C156.503 19.2031 160.227 19.776 163.117 20.9219C166.008 22.0677 168.56 24.125 170.773 27.0938L170.852 18.7734L188.508 20.2578L188.391 60.0625L173.703 61.1563L171.32 53.4609ZM153.039 35.2969C151.529 37.0417 150.773 39.138 150.773 41.5859C150.773 44.0078 151.516 46.1172 153 47.9141C154.484 49.6849 156.607 50.5703 159.367 50.5703C162.128 50.5703 164.263 49.7891 165.773 48.2266C167.31 46.638 168.078 44.4635 168.078 41.7031C168.078 38.9427 167.31 36.7422 165.773 35.1016C164.237 33.4609 162.102 32.6406 159.367 32.6406C156.659 32.6406 154.549 33.526 153.039 35.2969ZM269.5 41.5078C269.5 34.9974 267.26 31.7422 262.781 31.7422C260.359 31.7422 258.654 32.3542 257.664 33.5781C255.685 35.974 254.695 40.9089 254.695 48.3828V60.6484L231.375 61.3516V58.1875L231.766 40.3359C231.766 36.7422 231.206 34.2813 230.086 32.9531C228.992 31.599 227.182 30.9219 224.656 30.9219C222.104 30.9219 220.255 31.8073 219.109 33.5781C217.521 35.974 216.74 40.6615 216.766 47.6406L216.844 61.3516L192.977 61.4297L193.211 57.3672C193.471 50.7266 193.706 43.2526 193.914 34.9453C194.122 26.638 194.227 22.4583 194.227 22.4063L206.922 20.8047L211.102 28.8516C215.451 22.4193 222.521 19.2031 232.312 19.2031C236.635 19.2031 240.138 19.8802 242.82 21.2344C245.529 22.5885 247.951 24.763 250.086 27.7578C254.695 22.0547 261.674 19.2031 271.023 19.2031C278.159 19.2031 283.68 21.0911 287.586 24.8672C291.492 28.6172 293.445 33.6302 293.445 39.9063L292.742 61.0391L269.5 61.4297V41.5078ZM333.031 36.5469C333.005 34.099 332.432 32.3672 331.312 31.3516C330.219 30.3359 328.604 29.8281 326.469 29.8281C324.359 29.8281 322.654 30.4661 321.352 31.7422C320.049 32.9922 319.242 34.5677 318.93 36.4688L333.031 36.5469ZM348.344 57.7969C346.729 59.0208 343.852 60.0885 339.711 61C335.57 61.9375 331.547 62.4063 327.641 62.4063C323.76 62.4063 320.466 62.224 317.758 61.8594C315.049 61.4948 312.367 60.8438 309.711 59.9063C307.055 58.9427 304.776 57.7318 302.875 56.2734C301 54.7891 299.477 52.875 298.305 50.5313C297.133 48.1615 296.547 45.3359 296.547 42.0547C296.547 38.7474 297.146 35.7135 298.344 32.9531C299.542 30.1927 301.091 27.9661 302.992 26.2734C308.279 21.5599 315.935 19.2031 325.961 19.2031C330.727 19.2031 335.258 20.1146 339.555 21.9375C343.852 23.8125 346.911 26.625 348.734 30.375C349.776 32.4844 350.297 34.8151 350.297 37.3672L349.828 43.8125L318.148 43.6563C318.773 46.026 320.284 47.888 322.68 49.2422C325.102 50.5964 328.396 51.2734 332.562 51.2734C336.729 51.2734 341.534 50.1406 346.977 47.875H349.086L348.344 57.7969ZM215.305 127.352L190.422 127.352L145.773 127.039L146.438 113.289C147.766 85.7109 148.43 71.5703 148.43 70.8672C151.555 70.737 153.599 70.6719 154.562 70.6719L194.094 70.6719C202.87 70.6719 209.966 70.6198 215.383 70.5156L213.781 85.2422C207.479 85.8151 194.927 86.1016 176.125 86.1016C176.047 86.7266 175.956 87.7813 175.852 89.2656C175.773 90.75 175.708 91.8698 175.656 92.625C183.156 92.4948 188.391 92.4297 191.359 92.4297L199.953 92.6641C199.953 93.8099 199.771 95.7891 199.406 98.6016C199.068 101.414 198.69 103.589 198.273 105.125C197.857 105.229 194.615 105.281 188.547 105.281H175.148L174.719 112.898L215.734 113.367C215.734 118.289 215.656 121.805 215.5 123.914C215.37 125.997 215.305 127.143 215.305 127.352ZM260.359 90.2031C260.49 83.1458 260.724 76.8568 261.062 71.3359C261.87 71.3099 265.203 71.1797 271.062 70.9453C276.948 70.6849 280.346 70.5547 281.258 70.5547H281.375V125.516C281.115 125.646 280.359 125.815 279.109 126.023L274.656 126.766C272.938 127.052 271.57 127.326 270.555 127.586C267.612 122.43 265.906 119.37 265.438 118.406C261.688 123.354 256.948 126.44 251.219 127.664C248.771 128.185 245.594 128.445 241.687 128.445C237.781 128.445 233.901 127.612 230.047 125.945C226.219 124.253 223.185 121.844 220.945 118.719C218.706 115.594 217.586 112.313 217.586 108.875C217.586 99.8125 221.44 93.2109 229.148 89.0703C233.94 86.4922 239.214 85.2031 244.969 85.2031C247.807 85.2031 250.581 85.6719 253.289 86.6094C256.023 87.5208 258.38 88.7188 260.359 90.2031ZM249.773 117.078C252.716 117.078 255.047 116.089 256.766 114.109C258.484 112.13 259.344 109.826 259.344 107.195C259.344 104.539 258.51 102.273 256.844 100.398C255.203 98.4974 252.898 97.5469 249.93 97.5469C247.977 97.5469 246.271 98.0417 244.812 99.0313C242.052 100.906 240.659 103.68 240.633 107.352C240.633 109.982 241.427 112.26 243.016 114.188C244.604 116.115 246.857 117.078 249.773 117.078ZM309.203 107.195C309.203 114.018 312.003 117.43 317.602 117.43C320.622 117.456 322.914 116.453 324.477 114.422C325.622 112.911 326.365 111.414 326.703 109.93C327.536 106.31 327.953 100.971 327.953 93.9141V87.6641C331.208 87.5599 338.617 87.3776 350.18 87.1172C350.232 88.4974 350.258 89.5521 350.258 90.2813L348.305 125.828L336 127.664C334.281 124.227 333.031 121.531 332.25 119.578C329.672 122.495 326.417 124.708 322.484 126.219C318.578 127.703 314.49 128.445 310.219 128.445C300.87 128.419 293.943 126.089 289.438 121.453C286.938 118.875 285.688 115.424 285.688 111.102C285.688 106.753 285.831 102.143 286.117 97.2734C286.404 92.4036 286.56 89.3698 286.586 88.1719C287.497 88.0938 289.932 87.9896 293.891 87.8594C297.849 87.7292 300.714 87.612 302.484 87.5078L310.141 87.0391C309.516 99.0443 309.203 105.763 309.203 107.195Z" fill="white"/>
</g>
<path d="M371 3V143" stroke="white" stroke-width="5"/>
</g>
<defs>
<filter id="filter0_d_415_2566" x="44.2969" y="3" width="333.203" height="148" filterUnits="userSpaceOnUse" color-interpolation-filters="sRGB">
<feFlood flood-opacity="0" result="BackgroundImageFix"/>
<feColorMatrix in="SourceAlpha" type="matrix" values="0 0 0 0 0 0 0 0 0 0 0 0 0 0 0 0 0 0 127 0" result="hardAlpha"/>
<feOffset dy="4"/>
<feGaussianBlur stdDeviation="2"/>
<feComposite in2="hardAlpha" operator="out"/>
<feColorMatrix type="matrix" values="0 0 0 0 1 0 0 0 0 1 0 0 0 0 1 0 0 0 0.25 0"/>
<feBlend mode="normal" in2="BackgroundImageFix" result="effect1_dropShadow_415_2566"/>
<feBlend mode="normal" in="SourceGraphic" in2="effect1_dropShadow_415_2566" result="shape"/>
</filter>
<filter id="filter1_d_415_2566" x="44.2969" y="3.14844" width="310" height="133.297" filterUnits="userSpaceOnUse" color-interpolation-filters="sRGB">
<feFlood flood-opacity="0" result="BackgroundImageFix"/>
<feColorMatrix in="SourceAlpha" type="matrix" values="0 0 0 0 0 0 0 0 0 0 0 0 0 0 0 0 0 0 127 0" result="hardAlpha"/>
<feOffset dy="4"/>
<feGaussianBlur stdDeviation="2"/>
<feComposite in2="hardAlpha" operator="out"/>
<feColorMatrix type="matrix" values="0 0 0 0 1 0 0 0 0 1 0 0 0 0 1 0 0 0 0.25 0"/>
<feBlend mode="normal" in2="BackgroundImageFix" result="effect1_dropShadow_415_2566"/>
<feBlend mode="normal" in="SourceGraphic" in2="effect1_dropShadow_415_2566" result="shape"/>
</filter>
</defs>
</svg>
